# xmcd
#
# Track frame offsets:
#	150
#	19850
#	41312
#	56812
#	74175
#	91162
#	113625
#	130137
#	150400
#	169612
#	188725
#	208412
#	229025
#	249312
#	267137
#	288087
#
# Disc length: 4180 seconds
#
# Revision: 1
# Processed by: cddbd v1.5.1PL0 Copyright (c) Steve Scherf et al.
# Submitted via: CDex 1.50Beta5
#
DISCID=d8105210
DTITLE=Various Artist - BEAT EXPRESS Vol.4 DISC ONE
DYEAR=1900
DGENRE=Jpops
TTITLE0=渡辺美里/10 years
TTITLE1=爆風スランプ/Runner
TTITLE2=De LAX/POP IS MY LIFE
TTITLE3=アンジ-/素晴らしい僕ら
TTITLE4=BE BODERN/眠れない物語
TTITLE5=ROLLIE/ROCKIN'OVER THE WORLD
TTITLE6=THE BLUE HEARTS/僕はここに立っているよ
TTITLE7=The Street Sliders/Baby,Don't Worry
TTITLE8=BLUE ANGEL/JET BOY
TTITLE9=TEENAGE NEWS/ティーンエイジ ドリーム
TTITLE10=The Pepper Boys/For Your Love〜愛を守りたい〜
TTITLE11=UNICORN/I’M LOSER
TTITLE12=プリンセス・プリンセス/Stay There
TTITLE13=Pli:s/Again!
TTITLE14=D-PROJECT/Answer and Question
TTITLE15=REBECCA/ONE MORE KISS
EXTD=
EXTT0=
EXTT1=
EXTT2=
EXTT3=
EXTT4=
EXTT5=
EXTT6=
EXTT7=
EXTT8=
EXTT9=
EXTT10=
EXTT11=
EXTT12=
EXTT13=
EXTT14=
EXTT15=
PLAYORDER=
